<svg width="200" height="120" viewBox="0 0 200 120" xmlns="http://www.w3.org/2000/svg">
  <rect width="200" height="120" fill="white"/>
  
  <!-- Circular outline -->
  <path d="M100 20 A80 80 0 0 1 180 100 L180 120 L20 120 L20 100 A80 80 0 0 1 100 20" fill="none" stroke="#003366" stroke-width="3"/>
  
  <!-- Stars -->
  <polygon points="60,30 62,35 67,35 63,38 65,43 60,40 55,43 57,38 53,35 58,35" fill="#ff0000"/>
  <polygon points="80,25 82,30 87,30 83,33 85,38 80,35 75,38 77,33 73,30 78,30" fill="#ff0000"/>
  <polygon points="100,20 102,25 107,25 103,28 105,33 100,30 95,33 97,28 93,25 98,25" fill="#ff0000"/>
  <polygon points="120,25 122,30 127,30 123,33 125,38 120,35 115,38 117,33 113,30 118,30" fill="#ff0000"/>
  <polygon points="140,30 142,35 147,35 143,38 145,43 140,40 135,43 137,38 133,35 138,35" fill="#ff0000"/>
  
  <!-- Sports car -->
  <path d="M70 80 L130 80 L135 85 L140 85 L145 90 L150 90 L155 85 L160 85 L165 80 L170 80 L170 85 L165 90 L160 95 L155 95 L150 100 L145 100 L140 95 L135 95 L130 90 L125 90 L120 85 L115 85 L110 90 L105 90 L100 95 L95 95 L90 90 L85 90 L80 85 L75 85 L70 80" fill="#ff0000"/>
  
  <!-- Car wheels -->
  <circle cx="85" cy="95" r="8" fill="white" stroke="#003366" stroke-width="2"/>
  <circle cx="85" cy="95" r="4" fill="#003366"/>
  <circle cx="155" cy="95" r="8" fill="white" stroke="#003366" stroke-width="2"/>
  <circle cx="155" cy="95" r="4" fill="#003366"/>
  
  <!-- PRIME MOTORS text -->
  <text x="100" y="115" font-family="Arial, sans-serif" font-size="12" font-weight="bold" fill="#003366" text-anchor="middle">PRIME MOTORS</text>
</svg>
